<svg width="1313" height="124" viewBox="0 0 1313 124" fill="none" xmlns="http://www.w3.org/2000/svg">
<path d="M58.2471 68.1533H49.4521C38.6514 68.1533 30.3451 65.9674 24.5332 61.5957C18.7214 57.1725 15.8154 51.1035 15.8154 43.3887C15.8154 36.1882 19.2357 30.1963 26.0762 25.4131C32.9167 20.5785 42.5088 18.1611 54.8525 18.1611C63.0817 18.1611 70.7451 19.2926 77.8428 21.5557C84.9919 23.8187 90.9323 27.0075 95.6641 31.1221L91.3438 34.5938C87.1263 31.1478 81.8288 28.4733 75.4512 26.5703C69.0736 24.6673 62.2074 23.7158 54.8525 23.7158C44.0003 23.7158 35.694 25.5674 29.9336 29.2705C24.2246 32.9736 21.3701 37.6797 21.3701 43.3887C21.3701 49.5605 23.7103 54.318 28.3906 57.6611C33.1224 60.9528 40.1429 62.5986 49.4521 62.5986H57.9385C68.8936 62.5986 77.277 64.8102 83.0889 69.2334C88.9521 73.6051 91.8838 79.6484 91.8838 87.3633C91.8838 94.5638 88.4635 100.581 81.623 105.416C74.7826 110.199 65.1904 112.591 52.8467 112.591C44.6175 112.591 36.9284 111.459 29.7793 109.196C22.6816 106.933 16.7669 103.744 12.0352 99.6299L16.3555 96.1582C20.5729 99.6042 25.8704 102.279 32.248 104.182C38.6257 106.085 45.4919 107.036 52.8467 107.036C63.6989 107.036 71.9795 105.185 77.6885 101.481C83.4489 97.7783 86.3291 93.0723 86.3291 87.3633C86.3291 81.1914 83.9632 76.4596 79.2314 73.168C74.5511 69.8249 67.5563 68.1533 58.2471 68.1533ZM58.2471 79.2627H49.4521C35.154 79.2627 24.1217 76.0225 16.3555 69.542C8.58919 63.0101 4.70605 54.2923 4.70605 43.3887C4.70605 38.3997 5.81185 33.7194 8.02344 29.3477C10.235 24.9759 13.3981 21.1442 17.5127 17.8525C21.6787 14.5094 26.9762 11.8864 33.4053 9.9834C39.8343 8.02897 46.9834 7.05176 54.8525 7.05176C64.779 7.05176 74.0625 8.56901 82.7031 11.6035C91.3438 14.5866 98.5443 18.7783 104.305 24.1787L99.8301 27.4961C94.584 22.7643 88.0264 19.1126 80.1572 16.541C72.2881 13.918 63.8532 12.6064 54.8525 12.6064C40.9658 12.6064 30.0622 15.5381 22.1416 21.4014C14.221 27.2646 10.2607 34.5938 10.2607 43.3887C10.2607 52.6979 13.6553 60.0785 20.4443 65.5303C27.2334 70.9821 36.9027 73.708 49.4521 73.708H57.9385C73.1624 73.708 80.7744 78.2598 80.7744 87.3633C80.7744 91.4779 78.4342 94.8724 73.7539 97.5469C69.125 100.17 62.1559 101.481 52.8467 101.481C46.3148 101.481 40.2458 100.736 34.6396 99.2441C29.0335 97.7012 24.4046 95.5153 20.7529 92.6865L25.1504 89.292C31.5794 93.7152 40.8115 95.9268 52.8467 95.9268C60.5615 95.9268 66.2191 95.1296 69.8193 93.5352C73.4196 91.9408 75.2197 89.8835 75.2197 87.3633C75.2197 84.4316 73.9596 82.3486 71.4395 81.1143C68.9193 79.8799 64.5218 79.2627 58.2471 79.2627ZM58.2471 57.0439H49.4521C34.4339 57.0439 26.9248 52.4922 26.9248 43.3887C26.9248 39.2741 29.2393 35.9053 33.8682 33.2822C38.5485 30.6077 45.5433 29.2705 54.8525 29.2705C61.3844 29.2705 67.4535 30.042 73.0596 31.585C78.6657 33.0765 83.2946 35.2367 86.9463 38.0654L82.5488 41.46C76.1198 37.0368 66.8877 34.8252 54.8525 34.8252C47.1377 34.8252 41.4801 35.6224 37.8799 37.2168C34.2796 38.8112 32.4795 40.8685 32.4795 43.3887C32.4795 46.3203 33.7396 48.4033 36.2598 49.6377C38.7799 50.8721 43.1774 51.4893 49.4521 51.4893H58.2471C72.5452 51.4893 83.5775 54.7552 91.3438 61.2871C99.11 67.7676 102.993 76.4596 102.993 87.3633C102.993 92.3522 101.887 97.0326 99.6758 101.404C97.4642 105.776 94.2754 109.633 90.1094 112.977C85.9948 116.268 80.723 118.891 74.2939 120.846C67.8649 122.749 60.7158 123.7 52.8467 123.7C42.9202 123.7 33.6367 122.209 24.9961 119.226C16.3555 116.191 9.15495 111.974 3.39453 106.573L7.86914 103.256C13.1152 107.988 19.6729 111.665 27.542 114.288C35.4111 116.86 43.846 118.146 52.8467 118.146C66.7334 118.146 77.637 115.214 85.5576 109.351C93.4782 103.487 97.4385 96.1582 97.4385 87.3633C97.4385 78.054 94.0439 70.6735 87.2549 65.2217C80.4658 59.7699 70.7965 57.0439 58.2471 57.0439ZM233.488 9.90625L202.552 65.916L233.025 121H226.853L196.38 65.916L227.316 9.90625H233.488ZM221.067 9.90625L190.131 65.916L220.604 121H214.433L183.959 65.916L214.895 9.90625H221.067ZM208.646 9.90625L177.71 65.916L208.184 121H202.012L171.538 65.916L202.475 9.90625H208.646ZM196.226 9.90625L165.212 65.916L195.763 121H189.591L159.04 65.916L190.054 9.90625H196.226ZM150.091 9.90625V121H155.645V9.90625H150.091ZM138.981 9.90625V121H144.536V9.90625H138.981ZM127.872 9.90625V121H133.427V9.90625H127.872ZM116.763 9.90625V121H122.317V9.90625H116.763ZM345.853 9.90625H351.408L316.46 83.5059V121H310.905V83.5059L345.853 9.90625ZM334.744 9.90625H340.299L305.35 83.5059V121H299.796V83.5059L334.744 9.90625ZM323.635 9.90625H329.189L294.241 83.5059V121H288.686V83.5059L323.635 9.90625ZM312.525 9.90625H318.08L283.132 83.5059V121H277.577V83.5059L240.314 9.90625H245.869L280.277 77.874L312.525 9.90625ZM251.501 9.90625H257.056L284.598 62.29L281.82 68.3848L251.501 9.90625ZM262.61 9.90625H268.242L290.152 50.1006L287.298 56.1953L262.61 9.90625ZM273.874 9.90625H279.429L295.707 37.9883L292.93 44.083L273.874 9.90625ZM473.648 9.90625H479.203V121H473.648V9.90625ZM362.477 9.90625H368.032V121H362.477V9.90625ZM462.539 9.90625H468.094V121H462.539V9.90625ZM451.429 9.90625H456.984V121H451.429V9.90625ZM440.32 9.90625H445.875V121H440.32V76.5625H401.36V121H395.805V9.90625H401.36V48.7891H440.32V9.90625ZM384.696 9.90625H390.251V121H384.696V9.90625ZM373.587 9.90625H379.141V121H373.587V9.90625ZM440.32 71.0078V65.4531H401.36V71.0078H440.32ZM440.32 59.8984V54.3438H401.36V59.8984H440.32ZM574.21 66.2246C574.21 59.6413 572.178 54.5495 568.115 50.9492C564.052 47.349 558.677 45.5488 551.991 45.5488C546.333 45.5488 541.473 47.5033 537.41 51.4121C533.347 55.321 531.315 60.0013 531.315 65.4531C531.315 68.5391 531.727 71.3164 532.549 73.7852C533.372 76.2025 534.478 78.234 535.867 79.8799C537.307 81.4743 539.004 82.8115 540.959 83.8916C542.913 84.9202 544.945 85.666 547.053 86.1289C549.214 86.5918 551.502 86.8232 553.92 86.8232C559.783 86.8232 565.132 85.3831 569.966 82.5029V88.0576C564.978 90.6807 559.603 91.9922 553.842 91.9922C550.139 91.9922 546.642 91.5036 543.35 90.5264C540.11 89.4977 537.153 87.9805 534.478 85.9746C531.804 83.9173 529.669 81.14 528.075 77.6426C526.532 74.0938 525.76 70.0306 525.76 65.4531C525.76 58.3555 528.255 52.3379 533.244 47.4004C538.233 42.4629 544.482 39.9941 551.991 39.9941C560.272 39.9941 566.958 42.3343 572.049 47.0146C577.193 51.6436 579.764 58.0469 579.764 66.2246V121H574.21V66.2246ZM590.874 66.2246V121H585.319V66.2246C585.319 56.5039 582.207 48.7891 575.984 43.0801C569.761 37.3197 561.763 34.4395 551.991 34.4395C542.939 34.4395 535.378 37.4482 529.309 43.4658C523.24 49.4834 520.206 56.8125 520.206 65.4531C520.206 70.6992 521.106 75.4053 522.906 79.5713C524.758 83.7373 527.252 87.0804 530.389 89.6006C533.527 92.1208 537.024 94.0495 540.882 95.3867C544.79 96.6725 548.905 97.3154 553.225 97.3154C559.089 97.3154 564.669 95.9525 569.966 93.2266V99.0898C564.412 101.404 558.806 102.562 553.148 102.562C548.056 102.562 543.222 101.79 538.644 100.247C534.067 98.6527 529.978 96.3639 526.378 93.3809C522.777 90.3464 519.923 86.4375 517.814 81.6543C515.705 76.8197 514.651 71.4193 514.651 65.4531C514.651 55.321 518.226 46.7061 525.375 39.6084C532.575 32.4593 541.447 28.8848 551.991 28.8848C559.397 28.8848 566.032 30.402 571.895 33.4365C577.758 36.4196 582.387 40.7656 585.782 46.4746C589.176 52.1836 590.874 58.7669 590.874 66.2246ZM601.983 66.2246V121H596.428V66.2246C596.428 57.7383 594.474 50.2292 590.565 43.6973C586.708 37.1139 581.41 32.0736 574.673 28.5762C567.935 25.0788 560.374 23.3301 551.991 23.3301C544.019 23.3301 536.741 25.2331 530.158 29.0391C523.575 32.7936 518.406 37.8854 514.651 44.3145C510.948 50.7435 509.096 57.7897 509.096 65.4531C509.096 72.0365 510.305 78.054 512.722 83.5059C515.14 88.9062 518.38 93.3551 522.443 96.8525C526.558 100.35 531.212 103.076 536.407 105.03C541.653 106.933 547.131 107.885 552.84 107.885C558.651 107.885 564.36 106.676 569.966 104.259V109.891C564.103 112.102 558.343 113.208 552.685 113.208C543.787 113.208 535.61 111.202 528.152 107.19C520.694 103.179 514.728 97.4954 510.254 90.1406C505.779 82.7858 503.542 74.5566 503.542 65.4531C503.542 58.9727 504.776 52.8008 507.245 46.9375C509.765 41.0742 513.16 36.0081 517.428 31.7393C521.697 27.4704 526.841 24.0758 532.858 21.5557C538.876 19.0355 545.253 17.7754 551.991 17.7754C561.403 17.7754 569.889 19.7812 577.45 23.793C585.062 27.8047 591.054 33.5137 595.425 40.9199C599.797 48.3262 601.983 56.7611 601.983 66.2246ZM613.092 66.2246V121H607.538V66.2246C607.538 55.7324 605.095 46.3717 600.209 38.1426C595.323 29.862 588.662 23.4844 580.227 19.0098C571.792 14.4837 562.38 12.2207 551.991 12.2207C542.013 12.2207 532.884 14.6123 524.603 19.3955C516.323 24.1787 509.816 30.6592 505.085 38.8369C500.353 46.9632 497.987 55.8353 497.987 65.4531C497.987 71.7793 498.99 77.7969 500.996 83.5059C503.053 89.1634 505.83 94.1266 509.328 98.3955C512.877 102.613 516.94 106.265 521.517 109.351C526.146 112.437 531.109 114.777 536.407 116.371C541.756 117.965 547.182 118.763 552.685 118.763C558.754 118.763 564.515 117.605 569.966 115.291V121C564.258 123.006 558.394 124.009 552.377 124.009C546.153 124.009 540.084 123.134 534.17 121.386C528.306 119.637 522.855 117.065 517.814 113.671C512.825 110.225 508.428 106.188 504.622 101.559C500.816 96.8783 497.833 91.4264 495.673 85.2031C493.512 78.9798 492.432 72.3965 492.432 65.4531C492.432 57.4811 493.924 49.8949 496.907 42.6943C499.941 35.4424 504.056 29.1934 509.251 23.9473C514.497 18.6497 520.823 14.458 528.229 11.3721C535.687 8.2347 543.607 6.66602 551.991 6.66602C560.529 6.66602 568.552 8.10612 576.061 10.9863C583.57 13.8665 590.051 17.8783 595.503 23.0215C600.954 28.1133 605.249 34.388 608.386 41.8457C611.524 49.3034 613.092 57.4297 613.092 66.2246ZM670.374 67.9219H703.856C708.279 67.9219 712.034 66.5332 715.12 63.7559C718.206 60.9785 719.749 57.0697 719.749 52.0293C719.749 48.3262 718.129 45.0088 714.888 42.0771C711.7 39.1455 708.022 37.6797 703.856 37.6797H656.178V121H650.624V32.125H703.856C709.565 32.125 714.554 34.1309 718.823 38.1426C723.143 42.1543 725.303 46.7832 725.303 52.0293C725.303 58.5612 723.22 63.7816 719.054 67.6904C714.888 71.5479 709.822 73.4766 703.856 73.4766H670.374V67.9219ZM670.374 79.0312H703.856C711.262 79.0312 717.614 76.5111 722.912 71.4707C728.209 66.4303 730.858 59.9499 730.858 52.0293C730.858 45.2917 728.158 39.377 722.757 34.2852C717.357 29.1419 711.057 26.5703 703.856 26.5703H645.069V121H639.514V21.0156H703.856C712.6 21.0156 720.212 24.1273 726.692 30.3506C733.172 36.5225 736.413 43.7487 736.413 52.0293C736.413 61.2871 733.198 69.0277 726.769 75.251C720.392 81.4743 712.754 84.5859 703.856 84.5859H670.374V79.0312ZM670.374 90.1406H703.856C710.697 90.1406 717.023 88.4948 722.835 85.2031C728.646 81.9115 733.275 77.334 736.721 71.4707C740.219 65.6074 741.967 59.127 741.967 52.0293C741.967 45.6003 740.244 39.5827 736.798 33.9766C733.352 28.319 728.672 23.8187 722.757 20.4756C716.894 17.1325 710.594 15.4609 703.856 15.4609H633.96V121H628.405V9.90625H703.856C709.668 9.90625 715.248 11.0635 720.597 13.3779C725.998 15.641 730.652 18.6755 734.561 22.4814C738.47 26.236 741.607 30.7106 743.973 35.9053C746.339 41.0999 747.522 46.4746 747.522 52.0293C747.522 61.0299 745.465 68.8991 741.35 75.6367C737.236 82.3229 731.707 87.4147 724.763 90.9121L736.413 121H730.472L719.44 93.1494C718.051 93.6123 716.431 94.0752 714.58 94.5381L724.995 121H719.054L708.871 95.4639C707.276 95.6182 705.605 95.6953 703.856 95.6953L713.654 121H707.791L698.07 95.6953H693.055L702.39 121H696.527L687.115 95.6953H670.374V90.1406ZM667.288 121H661.733V43.2344H703.856C706.736 43.2344 709.179 44.1087 711.185 45.8574C713.191 47.5547 714.194 49.612 714.194 52.0293C714.194 58.9212 710.748 62.3672 703.856 62.3672H670.374V56.8125H703.856C707.045 56.8125 708.639 55.2181 708.639 52.0293C708.639 51.1549 708.151 50.4092 707.173 49.792C706.248 49.1234 705.142 48.7891 703.856 48.7891H667.288V121ZM804.572 68.6934H828.102C832.731 68.6934 836.666 67.3047 839.906 64.5273C843.146 61.75 844.766 57.8411 844.766 52.8008C844.766 48.8919 843.069 45.3945 839.674 42.3086C836.28 39.2227 832.422 37.6797 828.102 37.6797H789.219V121H783.665V32.125H828.102C834.017 32.125 839.186 34.208 843.609 38.374C848.083 42.54 850.321 47.349 850.321 52.8008C850.321 59.3327 848.161 64.5531 843.84 68.4619C839.52 72.3193 834.274 74.248 828.102 74.248H804.572V68.6934ZM804.572 79.8027H828.102C835.714 79.8027 842.246 77.2826 847.698 72.2422C853.15 67.2018 855.875 60.7214 855.875 52.8008C855.875 45.8574 853.098 39.7627 847.543 34.5166C841.989 29.2191 835.508 26.5703 828.102 26.5703H778.11V121H772.555V21.0156H828.102C837.051 21.0156 844.843 24.2044 851.478 30.582C858.113 36.9082 861.43 44.3145 861.43 52.8008C861.43 62.0586 858.139 69.7992 851.555 76.0225C845.023 82.2458 837.206 85.3574 828.102 85.3574H804.572V79.8027ZM804.572 90.9121H828.102C835.045 90.9121 841.474 89.2663 847.389 85.9746C853.355 82.6829 858.113 78.1055 861.662 72.2422C865.21 66.3789 866.985 59.8984 866.985 52.8008C866.985 46.2689 865.21 40.1227 861.662 34.3623C858.164 28.6019 853.407 24.0244 847.389 20.6299C841.423 17.1839 834.994 15.4609 828.102 15.4609H767V121H761.446V9.90625H828.102C833.965 9.90625 839.623 11.0635 845.075 13.3779C850.578 15.6924 855.335 18.804 859.347 22.7129C863.359 26.5703 866.548 31.1478 868.914 36.4453C871.331 41.6914 872.54 47.1432 872.54 52.8008C872.54 59.4355 871.357 65.5303 868.991 71.085C866.625 76.6396 863.41 81.2686 859.347 84.9717C855.284 88.6234 850.552 91.4521 845.152 93.458C839.803 95.4639 834.12 96.4668 828.102 96.4668H804.572V90.9121ZM800.329 121H794.774V43.2344H828.102C831.137 43.2344 833.734 44.1859 835.894 46.0889C838.106 47.9404 839.211 50.1777 839.211 52.8008C839.211 59.6927 835.508 63.1387 828.102 63.1387H804.572V57.584H828.102C831.805 57.584 833.657 55.9896 833.657 52.8008C833.657 51.6693 833.117 50.7178 832.037 49.9463C830.957 49.1748 829.645 48.7891 828.102 48.7891H800.329V121ZM885.692 98.7812V93.2266H913.465V98.7812H885.692ZM885.692 109.891V104.336H913.465V109.891H885.692ZM885.692 121V115.445H913.465V121H885.692ZM928.623 9.90625H934.178V121H928.623V9.90625ZM961.952 9.90625H967.506V93.2266H1008.47V98.7812H967.506V104.336H1008.47V109.891H967.506V115.445H1008.47V121H961.952V9.90625ZM950.842 9.90625H956.397V121H950.842V9.90625ZM939.733 9.90625H945.287V121H939.733V9.90625ZM1055.65 9.90625H1061.2V121H1055.65V9.90625ZM1044.54 9.90625H1050.09V121H1044.54V9.90625ZM1033.43 9.90625H1038.98V121H1033.43V9.90625ZM1022.32 9.90625H1027.87V121H1022.32V9.90625ZM1072.89 9.90625H1078.91L1119.87 113.517L1160.84 9.90625H1166.78L1122.88 121H1116.86L1072.89 9.90625ZM1084.85 9.90625H1090.79L1123.73 93.2266L1120.57 100.324L1084.85 9.90625ZM1096.8 9.90625H1102.82L1129.67 78.0283L1126.74 85.666L1096.8 9.90625ZM1108.76 9.90625H1114.7L1135.53 62.5986L1132.6 70.3906L1108.76 9.90625ZM1196.63 9.90625H1202.65L1158.68 121H1152.74L1196.63 9.90625ZM1184.75 9.90625H1190.69L1146.72 121H1140.78L1184.75 9.90625ZM1172.72 9.90625H1178.74L1134.76 121H1128.82L1172.72 9.90625ZM1241.8 121H1236.25V9.90625H1241.8V121ZM1230.69 121H1225.14V9.90625H1230.69V121ZM1219.58 121H1214.03V9.90625H1219.58V121ZM1252.91 93.2266H1306.07V98.7812H1252.91V104.336H1306.07V109.891H1252.91V115.445H1306.07V121H1247.36V9.90625H1306.07V15.4609H1252.91V21.0156H1306.07V26.5703H1252.91V32.125H1306.07V37.6797H1252.91V51.4893H1302.98V57.0439H1252.91V62.5986H1302.98V68.1533H1252.91V73.708H1302.98V79.2627H1252.91V93.2266Z" fill="white"/>
</svg>
