<svg width="333" height="59" viewBox="0 0 333 59" fill="none" xmlns="http://www.w3.org/2000/svg">
<path d="M14.7461 22.6211H12.5195C9.78516 22.6211 7.68229 22.0677 6.21094 20.9609C4.73958 19.8411 4.00391 18.3047 4.00391 16.3516C4.00391 14.5286 4.86979 13.0117 6.60156 11.8008C8.33333 10.5768 10.7617 9.96484 13.8867 9.96484C15.9701 9.96484 17.9102 10.2513 19.707 10.8242C21.5169 11.3971 23.0208 12.2044 24.2188 13.2461L23.125 14.125C22.0573 13.2526 20.7161 12.5755 19.1016 12.0938C17.487 11.612 15.7487 11.3711 13.8867 11.3711C11.1393 11.3711 9.03646 11.8398 7.57812 12.7773C6.13281 13.7148 5.41016 14.9062 5.41016 16.3516C5.41016 17.9141 6.0026 19.1185 7.1875 19.9648C8.38542 20.7982 10.1628 21.2148 12.5195 21.2148H14.668C17.4414 21.2148 19.5638 21.7747 21.0352 22.8945C22.5195 24.0013 23.2617 25.5312 23.2617 27.4844C23.2617 29.3073 22.3958 30.8307 20.6641 32.0547C18.9323 33.2656 16.5039 33.8711 13.3789 33.8711C11.2956 33.8711 9.34896 33.5846 7.53906 33.0117C5.74219 32.4388 4.24479 31.6315 3.04688 30.5898L4.14062 29.7109C5.20833 30.5833 6.54948 31.2604 8.16406 31.7422C9.77865 32.224 11.5169 32.4648 13.3789 32.4648C16.1263 32.4648 18.2227 31.9961 19.668 31.0586C21.1263 30.1211 21.8555 28.9297 21.8555 27.4844C21.8555 25.9219 21.2565 24.724 20.0586 23.8906C18.8737 23.0443 17.1029 22.6211 14.7461 22.6211ZM14.7461 25.4336H12.5195C8.89974 25.4336 6.10677 24.6133 4.14062 22.9727C2.17448 21.319 1.19141 19.112 1.19141 16.3516C1.19141 15.0885 1.47135 13.9036 2.03125 12.7969C2.59115 11.6901 3.39193 10.7201 4.43359 9.88672C5.48828 9.04036 6.82943 8.3763 8.45703 7.89453C10.0846 7.39974 11.8945 7.15234 13.8867 7.15234C16.3997 7.15234 18.75 7.53646 20.9375 8.30469C23.125 9.0599 24.9479 10.1211 26.4062 11.4883L25.2734 12.3281C23.9453 11.1302 22.2852 10.2057 20.293 9.55469C18.3008 8.89062 16.1654 8.55859 13.8867 8.55859C10.3711 8.55859 7.61068 9.30078 5.60547 10.7852C3.60026 12.2695 2.59766 14.125 2.59766 16.3516C2.59766 18.7083 3.45703 20.5768 5.17578 21.957C6.89453 23.3372 9.34245 24.0273 12.5195 24.0273H14.668C18.5221 24.0273 20.4492 25.1797 20.4492 27.4844C20.4492 28.526 19.8568 29.3854 18.6719 30.0625C17.5 30.7266 15.7357 31.0586 13.3789 31.0586C11.7253 31.0586 10.1888 30.8698 8.76953 30.4922C7.35026 30.1016 6.17839 29.5482 5.25391 28.832L6.36719 27.9727C7.99479 29.0924 10.332 29.6523 13.3789 29.6523C15.332 29.6523 16.7643 29.4505 17.6758 29.0469C18.5872 28.6432 19.043 28.1224 19.043 27.4844C19.043 26.7422 18.724 26.2148 18.0859 25.9023C17.4479 25.5898 16.3346 25.4336 14.7461 25.4336ZM14.7461 19.8086H12.5195C8.71745 19.8086 6.81641 18.6562 6.81641 16.3516C6.81641 15.3099 7.40234 14.457 8.57422 13.793C9.75911 13.1159 11.5299 12.7773 13.8867 12.7773C15.5404 12.7773 17.0768 12.9727 18.4961 13.3633C19.9154 13.7409 21.0872 14.2878 22.0117 15.0039L20.8984 15.8633C19.2708 14.7435 16.9336 14.1836 13.8867 14.1836C11.9336 14.1836 10.5013 14.3854 9.58984 14.7891C8.67839 15.1927 8.22266 15.7135 8.22266 16.3516C8.22266 17.0938 8.54167 17.6211 9.17969 17.9336C9.81771 18.2461 10.931 18.4023 12.5195 18.4023H14.7461C18.3659 18.4023 21.1589 19.2292 23.125 20.8828C25.0911 22.5234 26.0742 24.724 26.0742 27.4844C26.0742 28.7474 25.7943 29.9323 25.2344 31.0391C24.6745 32.1458 23.8672 33.1224 22.8125 33.9688C21.7708 34.8021 20.4362 35.4661 18.8086 35.9609C17.181 36.4427 15.3711 36.6836 13.3789 36.6836C10.8659 36.6836 8.51562 36.306 6.32812 35.5508C4.14062 34.7826 2.31771 33.7148 0.859375 32.3477L1.99219 31.5078C3.32031 32.7057 4.98047 33.6367 6.97266 34.3008C8.96484 34.9518 11.1003 35.2773 13.3789 35.2773C16.8945 35.2773 19.6549 34.5352 21.6602 33.0508C23.6654 31.5664 24.668 29.7109 24.668 27.4844C24.668 25.1276 23.8086 23.2591 22.0898 21.8789C20.3711 20.4987 17.9232 19.8086 14.7461 19.8086ZM59.1109 7.875L51.2789 22.0547L58.9937 36H57.4312L49.7164 22.0547L57.5484 7.875H59.1109ZM55.9664 7.875L48.1344 22.0547L55.8492 36H54.2867L46.5719 22.0547L54.4039 7.875H55.9664ZM52.8219 7.875L44.9898 22.0547L52.7047 36H51.1422L43.4273 22.0547L51.2594 7.875H52.8219ZM49.6773 7.875L41.8258 22.0547L49.5602 36H47.9977L40.2633 22.0547L48.1148 7.875H49.6773ZM37.9977 7.875V36H39.4039V7.875H37.9977ZM35.1852 7.875V36H36.5914V7.875H35.1852ZM32.3727 7.875V36H33.7789V7.875H32.3727ZM29.5602 7.875V36H30.9664V7.875H29.5602ZM87.5578 7.875H88.9641L80.1164 26.5078V36H78.7102V26.5078L87.5578 7.875ZM84.7453 7.875H86.1516L77.3039 26.5078V36H75.8977V26.5078L84.7453 7.875ZM81.9328 7.875H83.3391L74.4914 26.5078V36H73.0852V26.5078L81.9328 7.875ZM79.1203 7.875H80.5266L71.6789 26.5078V36H70.2727V26.5078L60.8391 7.875H62.2453L70.9562 25.082L79.1203 7.875ZM63.6711 7.875H65.0773L72.05 21.1367L71.3469 22.6797L63.6711 7.875ZM66.4836 7.875H67.9094L73.4562 18.0508L72.7336 19.5938L66.4836 7.875ZM69.3352 7.875H70.7414L74.8625 14.9844L74.1594 16.5273L69.3352 7.875ZM119.911 7.875H121.317V36H119.911V7.875ZM91.7664 7.875H93.1727V36H91.7664V7.875ZM117.098 7.875H118.505V36H117.098V7.875ZM114.286 7.875H115.692V36H114.286V7.875ZM111.473 7.875H112.88V36H111.473V24.75H101.61V36H100.204V7.875H101.61V17.7188H111.473V7.875ZM97.3914 7.875H98.7977V36H97.3914V7.875ZM94.5789 7.875H95.9852V36H94.5789V7.875ZM111.473 23.3438V21.9375H101.61V23.3438H111.473ZM111.473 20.5312V19.125H101.61V20.5312H111.473ZM145.37 22.1328C145.37 20.4661 144.855 19.1771 143.827 18.2656C142.798 17.3542 141.437 16.8984 139.745 16.8984C138.312 16.8984 137.082 17.3932 136.053 18.3828C135.024 19.3724 134.51 20.5573 134.51 21.9375C134.51 22.7188 134.614 23.4219 134.823 24.0469C135.031 24.6589 135.311 25.1732 135.662 25.5898C136.027 25.9935 136.457 26.332 136.952 26.6055C137.446 26.8659 137.961 27.0547 138.495 27.1719C139.041 27.2891 139.621 27.3477 140.233 27.3477C141.717 27.3477 143.071 26.9831 144.295 26.2539V27.6602C143.032 28.3242 141.672 28.6562 140.213 28.6562C139.276 28.6562 138.39 28.5326 137.557 28.2852C136.737 28.0247 135.988 27.6406 135.311 27.1328C134.634 26.612 134.093 25.9089 133.69 25.0234C133.299 24.125 133.104 23.0964 133.104 21.9375C133.104 20.1406 133.735 18.6172 134.998 17.3672C136.261 16.1172 137.843 15.4922 139.745 15.4922C141.841 15.4922 143.534 16.0846 144.823 17.2695C146.125 18.4414 146.776 20.0625 146.776 22.1328V36H145.37V22.1328ZM149.588 22.1328V36H148.182V22.1328C148.182 19.6719 147.394 17.7188 145.819 16.2734C144.243 14.8151 142.218 14.0859 139.745 14.0859C137.453 14.0859 135.539 14.8477 134.002 16.3711C132.466 17.8945 131.698 19.75 131.698 21.9375C131.698 23.2656 131.926 24.457 132.381 25.5117C132.85 26.5664 133.482 27.4128 134.276 28.0508C135.07 28.6888 135.955 29.1771 136.932 29.5156C137.922 29.8411 138.963 30.0039 140.057 30.0039C141.541 30.0039 142.954 29.6589 144.295 28.9688V30.4531C142.889 31.0391 141.47 31.332 140.037 31.332C138.748 31.332 137.524 31.1367 136.366 30.7461C135.207 30.3424 134.172 29.763 133.26 29.0078C132.349 28.2396 131.626 27.25 131.092 26.0391C130.558 24.8151 130.291 23.4479 130.291 21.9375C130.291 19.3724 131.196 17.1914 133.006 15.3945C134.829 13.5846 137.075 12.6797 139.745 12.6797C141.62 12.6797 143.299 13.0638 144.784 13.832C146.268 14.5872 147.44 15.6875 148.299 17.1328C149.159 18.5781 149.588 20.2448 149.588 22.1328ZM152.401 22.1328V36H150.995V22.1328C150.995 19.9844 150.5 18.0833 149.51 16.4297C148.534 14.763 147.192 13.487 145.487 12.6016C143.781 11.7161 141.867 11.2734 139.745 11.2734C137.726 11.2734 135.884 11.7552 134.217 12.7188C132.551 13.6693 131.242 14.9583 130.291 16.5859C129.354 18.2135 128.885 19.9974 128.885 21.9375C128.885 23.6042 129.191 25.1276 129.803 26.5078C130.415 27.875 131.235 29.0013 132.264 29.8867C133.306 30.7721 134.484 31.4622 135.799 31.957C137.127 32.4388 138.514 32.6797 139.959 32.6797C141.431 32.6797 142.876 32.3737 144.295 31.7617V33.1875C142.811 33.7474 141.353 34.0273 139.92 34.0273C137.668 34.0273 135.597 33.5195 133.709 32.5039C131.821 31.4883 130.311 30.0495 129.178 28.1875C128.045 26.3255 127.479 24.2422 127.479 21.9375C127.479 20.2969 127.791 18.7344 128.416 17.25C129.054 15.7656 129.914 14.4831 130.995 13.4023C132.075 12.3216 133.377 11.4622 134.901 10.8242C136.424 10.1862 138.039 9.86719 139.745 9.86719C142.127 9.86719 144.276 10.375 146.19 11.3906C148.117 12.4062 149.634 13.8516 150.741 15.7266C151.847 17.6016 152.401 19.737 152.401 22.1328ZM155.213 22.1328V36H153.807V22.1328C153.807 19.4766 153.189 17.1068 151.952 15.0234C150.715 12.9271 149.028 11.3125 146.893 10.1797C144.758 9.03385 142.375 8.46094 139.745 8.46094C137.218 8.46094 134.907 9.06641 132.811 10.2773C130.715 11.4883 129.067 13.1289 127.87 15.1992C126.672 17.2565 126.073 19.5026 126.073 21.9375C126.073 23.5391 126.327 25.0625 126.834 26.5078C127.355 27.9401 128.058 29.1966 128.944 30.2773C129.842 31.3451 130.871 32.2695 132.03 33.0508C133.202 33.832 134.458 34.4245 135.799 34.8281C137.153 35.2318 138.527 35.4336 139.92 35.4336C141.457 35.4336 142.915 35.1406 144.295 34.5547V36C142.85 36.5078 141.366 36.7617 139.842 36.7617C138.267 36.7617 136.73 36.5404 135.233 36.0977C133.748 35.6549 132.368 35.0039 131.092 34.1445C129.829 33.2721 128.716 32.25 127.752 31.0781C126.789 29.8932 126.034 28.513 125.487 26.9375C124.94 25.362 124.666 23.6953 124.666 21.9375C124.666 19.9193 125.044 17.9987 125.799 16.1758C126.567 14.3398 127.609 12.7578 128.924 11.4297C130.252 10.0885 131.854 9.02734 133.729 8.24609C135.617 7.45182 137.622 7.05469 139.745 7.05469C141.906 7.05469 143.937 7.41927 145.838 8.14844C147.739 8.8776 149.38 9.89323 150.76 11.1953C152.14 12.4844 153.228 14.0729 154.022 15.9609C154.816 17.849 155.213 19.9062 155.213 22.1328ZM169.715 22.5625H178.191C179.311 22.5625 180.262 22.2109 181.043 21.5078C181.824 20.8047 182.215 19.8151 182.215 18.5391C182.215 17.6016 181.805 16.7617 180.984 16.0195C180.177 15.2773 179.246 14.9062 178.191 14.9062H166.121V36H164.715V13.5H178.191C179.637 13.5 180.9 14.0078 181.98 15.0234C183.074 16.0391 183.621 17.2109 183.621 18.5391C183.621 20.1927 183.094 21.5143 182.039 22.5039C180.984 23.4805 179.702 23.9688 178.191 23.9688H169.715V22.5625ZM169.715 25.375H178.191C180.066 25.375 181.674 24.737 183.016 23.4609C184.357 22.1849 185.027 20.5443 185.027 18.5391C185.027 16.8333 184.344 15.3359 182.977 14.0469C181.609 12.7448 180.014 12.0938 178.191 12.0938H163.309V36H161.902V10.6875H178.191C180.405 10.6875 182.332 11.4753 183.973 13.0508C185.613 14.6133 186.434 16.4427 186.434 18.5391C186.434 20.8828 185.62 22.8424 183.992 24.418C182.378 25.9935 180.444 26.7812 178.191 26.7812H169.715V25.375ZM169.715 28.1875H178.191C179.923 28.1875 181.525 27.7708 182.996 26.9375C184.467 26.1042 185.639 24.9453 186.512 23.4609C187.397 21.9766 187.84 20.3359 187.84 18.5391C187.84 16.9115 187.404 15.388 186.531 13.9688C185.659 12.5365 184.474 11.3971 182.977 10.5508C181.492 9.70443 179.897 9.28125 178.191 9.28125H160.496V36H159.09V7.875H178.191C179.663 7.875 181.076 8.16797 182.43 8.75391C183.797 9.32682 184.975 10.0951 185.965 11.0586C186.954 12.0091 187.749 13.1419 188.348 14.457C188.947 15.7721 189.246 17.1328 189.246 18.5391C189.246 20.8177 188.725 22.8099 187.684 24.5156C186.642 26.2083 185.242 27.4974 183.484 28.3828L186.434 36H184.93L182.137 28.9492C181.785 29.0664 181.375 29.1836 180.906 29.3008L183.543 36H182.039L179.461 29.5352C179.057 29.5742 178.634 29.5938 178.191 29.5938L180.672 36H179.188L176.727 29.5938H175.457L177.82 36H176.336L173.953 29.5938H169.715V28.1875ZM168.934 36H167.527V16.3125H178.191C178.921 16.3125 179.539 16.5339 180.047 16.9766C180.555 17.4062 180.809 17.9271 180.809 18.5391C180.809 20.2839 179.936 21.1562 178.191 21.1562H169.715V19.75H178.191C178.999 19.75 179.402 19.3464 179.402 18.5391C179.402 18.3177 179.279 18.1289 179.031 17.9727C178.797 17.8034 178.517 17.7188 178.191 17.7188H168.934V36ZM203.689 22.7578H209.646C210.818 22.7578 211.814 22.4062 212.634 21.7031C213.455 21 213.865 20.0104 213.865 18.7344C213.865 17.7448 213.435 16.8594 212.576 16.0781C211.716 15.2969 210.74 14.9062 209.646 14.9062H199.802V36H198.396V13.5H209.646C211.143 13.5 212.452 14.0273 213.572 15.082C214.705 16.1367 215.271 17.3542 215.271 18.7344C215.271 20.388 214.724 21.7096 213.63 22.6992C212.537 23.6758 211.209 24.1641 209.646 24.1641H203.689V22.7578ZM203.689 25.5703H209.646C211.573 25.5703 213.227 24.9323 214.607 23.6562C215.987 22.3802 216.677 20.7396 216.677 18.7344C216.677 16.9766 215.974 15.4336 214.568 14.1055C213.162 12.7643 211.521 12.0938 209.646 12.0938H196.99V36H195.584V10.6875H209.646C211.912 10.6875 213.884 11.4948 215.564 13.1094C217.244 14.7109 218.084 16.5859 218.084 18.7344C218.084 21.0781 217.25 23.0378 215.584 24.6133C213.93 26.1888 211.951 26.9766 209.646 26.9766H203.689V25.5703ZM203.689 28.3828H209.646C211.404 28.3828 213.032 27.9661 214.529 27.1328C216.039 26.2995 217.244 25.1406 218.142 23.6562C219.041 22.1719 219.49 20.5312 219.49 18.7344C219.49 17.0807 219.041 15.5247 218.142 14.0664C217.257 12.6081 216.052 11.4492 214.529 10.5898C213.018 9.71745 211.391 9.28125 209.646 9.28125H194.177V36H192.771V7.875H209.646C211.13 7.875 212.563 8.16797 213.943 8.75391C215.336 9.33984 216.541 10.1276 217.556 11.1172C218.572 12.0938 219.379 13.2526 219.978 14.5938C220.59 15.9219 220.896 17.3021 220.896 18.7344C220.896 20.4141 220.597 21.957 219.998 23.3633C219.399 24.7695 218.585 25.9414 217.556 26.8789C216.528 27.8034 215.33 28.5195 213.962 29.0273C212.608 29.5352 211.17 29.7891 209.646 29.7891H203.689V28.3828ZM202.615 36H201.209V16.3125H209.646C210.414 16.3125 211.072 16.5534 211.619 17.0352C212.179 17.5039 212.459 18.0703 212.459 18.7344C212.459 20.4792 211.521 21.3516 209.646 21.3516H203.689V19.9453H209.646C210.584 19.9453 211.052 19.5417 211.052 18.7344C211.052 18.4479 210.916 18.207 210.642 18.0117C210.369 17.8164 210.037 17.7188 209.646 17.7188H202.615V36ZM224.226 30.375V28.9688H231.257V30.375H224.226ZM224.226 33.1875V31.7812H231.257V33.1875H224.226ZM224.226 36V34.5938H231.257V36H224.226ZM235.095 7.875H236.501V36H235.095V7.875ZM243.532 7.875H244.938V28.9688H255.309V30.375H244.938V31.7812H255.309V33.1875H244.938V34.5938H255.309V36H243.532V7.875ZM240.72 7.875H242.126V36H240.72V7.875ZM237.907 7.875H239.313V36H237.907V7.875ZM267.252 7.875H268.659V36H267.252V7.875ZM264.44 7.875H265.846V36H264.44V7.875ZM261.627 7.875H263.034V36H261.627V7.875ZM258.815 7.875H260.221V36H258.815V7.875ZM271.617 7.875H273.141L283.512 34.1055L293.883 7.875H295.387L284.273 36H282.75L271.617 7.875ZM274.645 7.875H276.148L284.488 28.9688L283.688 30.7656L274.645 7.875ZM277.672 7.875H279.195L285.992 25.1211L285.25 27.0547L277.672 7.875ZM280.699 7.875H282.203L287.477 21.2148L286.734 23.1875L280.699 7.875ZM302.945 7.875H304.469L293.336 36H291.832L302.945 7.875ZM299.938 7.875H301.441L290.309 36H288.805L299.938 7.875ZM296.891 7.875H298.414L287.281 36H285.777L296.891 7.875ZM314.38 36H312.974V7.875H314.38V36ZM311.568 36H310.162V7.875H311.568V36ZM308.755 36H307.349V7.875H308.755V36ZM317.193 28.9688H330.65V30.375H317.193V31.7812H330.65V33.1875H317.193V34.5938H330.65V36H315.787V7.875H330.65V9.28125H317.193V10.6875H330.65V12.0938H317.193V13.5H330.65V14.9062H317.193V18.4023H329.869V19.8086H317.193V21.2148H329.869V22.6211H317.193V24.0273H329.869V25.4336H317.193V28.9688Z" fill="white"/>
<path d="M100.651 50.4L101.315 56H100.835L100.315 51.504L98.403 56H98.147L96.227 51.504L95.707 56H95.235L95.899 50.4H96.251L98.283 55.16L100.315 50.4H100.651ZM106.28 56.08C105.88 56.08 105.526 55.992 105.216 55.816C104.912 55.64 104.675 55.3947 104.504 55.08C104.334 54.76 104.248 54.392 104.248 53.976V50.4H104.728V53.976C104.728 54.472 104.867 54.872 105.144 55.176C105.427 55.4747 105.806 55.624 106.28 55.624C106.755 55.624 107.134 55.4747 107.416 55.176C107.699 54.872 107.84 54.472 107.84 53.976V50.4H108.32V53.976C108.32 54.392 108.235 54.76 108.064 55.08C107.894 55.3947 107.654 55.64 107.344 55.816C107.04 55.992 106.686 56.08 106.28 56.08ZM113.069 56.08C112.696 56.08 112.371 56.008 112.093 55.864C111.816 55.72 111.6 55.52 111.445 55.264C111.296 55.008 111.216 54.72 111.205 54.4H111.685C111.696 54.7467 111.821 55.0373 112.061 55.272C112.301 55.5067 112.637 55.624 113.069 55.624C113.464 55.624 113.773 55.5253 113.997 55.328C114.227 55.1307 114.341 54.8853 114.341 54.592C114.341 54.3467 114.28 54.1467 114.157 53.992C114.035 53.8373 113.88 53.7173 113.693 53.632C113.512 53.5467 113.267 53.456 112.957 53.36C112.605 53.248 112.323 53.1387 112.109 53.032C111.896 52.9253 111.715 52.7707 111.565 52.568C111.421 52.3653 111.349 52.0987 111.349 51.768C111.349 51.4907 111.421 51.2427 111.565 51.024C111.715 50.8053 111.92 50.6347 112.181 50.512C112.443 50.384 112.733 50.32 113.053 50.32C113.357 50.32 113.637 50.3893 113.893 50.528C114.149 50.6667 114.352 50.856 114.501 51.096C114.656 51.3307 114.736 51.592 114.741 51.88H114.261C114.251 51.6827 114.195 51.5013 114.093 51.336C113.992 51.1653 113.848 51.0293 113.661 50.928C113.48 50.8267 113.269 50.776 113.029 50.776C112.677 50.776 112.392 50.8667 112.173 51.048C111.955 51.2293 111.845 51.4693 111.845 51.768C111.845 51.9973 111.904 52.184 112.021 52.328C112.144 52.472 112.293 52.5867 112.469 52.672C112.645 52.752 112.885 52.84 113.189 52.936C113.547 53.0533 113.835 53.168 114.053 53.28C114.272 53.3867 114.456 53.5467 114.605 53.76C114.76 53.968 114.837 54.2453 114.837 54.592C114.837 54.88 114.76 55.1387 114.605 55.368C114.451 55.592 114.237 55.768 113.965 55.896C113.699 56.0187 113.4 56.08 113.069 56.08ZM118.321 56H117.841V50.4H118.321V56ZM124.143 56.08C123.636 56.08 123.167 55.952 122.735 55.696C122.308 55.44 121.967 55.0907 121.711 54.648C121.46 54.2053 121.335 53.7227 121.335 53.2C121.335 52.6773 121.46 52.1947 121.711 51.752C121.967 51.3093 122.308 50.96 122.735 50.704C123.167 50.448 123.636 50.32 124.143 50.32C124.73 50.32 125.247 50.4827 125.695 50.808C126.143 51.1333 126.479 51.5707 126.703 52.12H126.191C125.988 51.6987 125.708 51.3707 125.351 51.136C124.994 50.896 124.591 50.776 124.143 50.776C123.727 50.776 123.34 50.8827 122.983 51.096C122.631 51.3093 122.351 51.6027 122.143 51.976C121.935 52.344 121.831 52.752 121.831 53.2C121.831 53.648 121.935 54.0587 122.143 54.432C122.351 54.8 122.631 55.0907 122.983 55.304C123.34 55.5173 123.727 55.624 124.143 55.624C124.596 55.624 125.004 55.504 125.367 55.264C125.735 55.024 126.018 54.696 126.215 54.28H126.727C126.503 54.8293 126.164 55.2667 125.711 55.592C125.258 55.9173 124.735 56.08 124.143 56.08ZM135.109 56.08C134.736 56.08 134.411 56.008 134.133 55.864C133.856 55.72 133.64 55.52 133.485 55.264C133.336 55.008 133.256 54.72 133.245 54.4H133.725C133.736 54.7467 133.861 55.0373 134.101 55.272C134.341 55.5067 134.677 55.624 135.109 55.624C135.504 55.624 135.813 55.5253 136.037 55.328C136.267 55.1307 136.381 54.8853 136.381 54.592C136.381 54.3467 136.32 54.1467 136.197 53.992C136.075 53.8373 135.92 53.7173 135.733 53.632C135.552 53.5467 135.307 53.456 134.997 53.36C134.645 53.248 134.363 53.1387 134.149 53.032C133.936 52.9253 133.755 52.7707 133.605 52.568C133.461 52.3653 133.389 52.0987 133.389 51.768C133.389 51.4907 133.461 51.2427 133.605 51.024C133.755 50.8053 133.96 50.6347 134.221 50.512C134.483 50.384 134.773 50.32 135.093 50.32C135.397 50.32 135.677 50.3893 135.933 50.528C136.189 50.6667 136.392 50.856 136.541 51.096C136.696 51.3307 136.776 51.592 136.781 51.88H136.301C136.291 51.6827 136.235 51.5013 136.133 51.336C136.032 51.1653 135.888 51.0293 135.701 50.928C135.52 50.8267 135.309 50.776 135.069 50.776C134.717 50.776 134.432 50.8667 134.213 51.048C133.995 51.2293 133.885 51.4693 133.885 51.768C133.885 51.9973 133.944 52.184 134.061 52.328C134.184 52.472 134.333 52.5867 134.509 52.672C134.685 52.752 134.925 52.84 135.229 52.936C135.587 53.0533 135.875 53.168 136.093 53.28C136.312 53.3867 136.496 53.5467 136.645 53.76C136.8 53.968 136.877 54.2453 136.877 54.592C136.877 54.88 136.8 55.1387 136.645 55.368C136.491 55.592 136.277 55.768 136.005 55.896C135.739 56.0187 135.44 56.08 135.109 56.08ZM141.155 56H140.675V50.856H139.203V50.4H142.627V50.856H141.155V56ZM148.663 56L146.607 53.536H145.863V56H145.383V50.4H146.935C147.281 50.4 147.588 50.4693 147.855 50.608C148.127 50.7413 148.335 50.928 148.479 51.168C148.628 51.4027 148.703 51.6693 148.703 51.968C148.703 52.384 148.564 52.736 148.287 53.024C148.015 53.3067 147.649 53.472 147.191 53.52L149.271 56H148.663ZM145.863 50.856V53.08H146.935C147.329 53.08 147.639 52.976 147.863 52.768C148.092 52.56 148.207 52.2933 148.207 51.968C148.207 51.6427 148.092 51.376 147.863 51.168C147.639 50.96 147.329 50.856 146.935 50.856H145.863ZM152.373 53.32V55.544H154.837V56H151.893V50.4H154.757V50.856H152.373V52.864H154.677V53.32H152.373ZM162.206 56H161.686L161.054 54.4H158.454L157.814 56H157.31L159.574 50.4H159.934L162.206 56ZM160.87 53.944L159.75 51.12L158.638 53.944H160.87ZM170.097 50.4L170.761 56H170.281L169.761 51.504L167.849 56H167.593L165.673 51.504L165.153 56H164.681L165.345 50.4H165.697L167.729 55.16L169.761 50.4H170.097ZM174.372 56H173.892V50.4H174.372V56ZM181.938 55.12V50.4H182.41V56H182.098L178.194 51.28V56H177.722V50.4H178.034L181.938 55.12ZM188.052 53.104H190.964V53.296C190.964 53.7867 190.847 54.2453 190.612 54.672C190.383 55.0987 190.06 55.44 189.644 55.696C189.228 55.952 188.759 56.08 188.236 56.08C187.713 56.08 187.233 55.952 186.796 55.696C186.364 55.44 186.02 55.0933 185.764 54.656C185.513 54.2133 185.388 53.728 185.388 53.2C185.388 52.672 185.513 52.1893 185.764 51.752C186.02 51.3093 186.364 50.96 186.796 50.704C187.233 50.448 187.713 50.32 188.236 50.32C188.828 50.32 189.356 50.4853 189.82 50.816C190.284 51.1413 190.625 51.576 190.844 52.12H190.332C190.14 51.7147 189.86 51.3893 189.492 51.144C189.129 50.8987 188.711 50.776 188.236 50.776C187.804 50.776 187.407 50.8827 187.044 51.096C186.687 51.3093 186.404 51.6027 186.196 51.976C185.988 52.344 185.884 52.752 185.884 53.2C185.884 53.648 185.988 54.0587 186.196 54.432C186.404 54.8 186.687 55.0907 187.044 55.304C187.407 55.5173 187.804 55.624 188.236 55.624C188.62 55.624 188.975 55.5413 189.3 55.376C189.625 55.2053 189.889 54.9653 190.092 54.656C190.3 54.3413 190.423 53.976 190.46 53.56H188.052V53.104ZM199.311 56.08C198.938 56.08 198.612 56.008 198.335 55.864C198.058 55.72 197.842 55.52 197.687 55.264C197.538 55.008 197.458 54.72 197.447 54.4H197.927C197.938 54.7467 198.063 55.0373 198.303 55.272C198.543 55.5067 198.879 55.624 199.311 55.624C199.706 55.624 200.015 55.5253 200.239 55.328C200.468 55.1307 200.583 54.8853 200.583 54.592C200.583 54.3467 200.522 54.1467 200.399 53.992C200.276 53.8373 200.122 53.7173 199.935 53.632C199.754 53.5467 199.508 53.456 199.199 53.36C198.847 53.248 198.564 53.1387 198.351 53.032C198.138 52.9253 197.956 52.7707 197.807 52.568C197.663 52.3653 197.591 52.0987 197.591 51.768C197.591 51.4907 197.663 51.2427 197.807 51.024C197.956 50.8053 198.162 50.6347 198.423 50.512C198.684 50.384 198.975 50.32 199.295 50.32C199.599 50.32 199.879 50.3893 200.135 50.528C200.391 50.6667 200.594 50.856 200.743 51.096C200.898 51.3307 200.978 51.592 200.983 51.88H200.503C200.492 51.6827 200.436 51.5013 200.335 51.336C200.234 51.1653 200.09 51.0293 199.903 50.928C199.722 50.8267 199.511 50.776 199.271 50.776C198.919 50.776 198.634 50.8667 198.415 51.048C198.196 51.2293 198.087 51.4693 198.087 51.768C198.087 51.9973 198.146 52.184 198.263 52.328C198.386 52.472 198.535 52.5867 198.711 52.672C198.887 52.752 199.127 52.84 199.431 52.936C199.788 53.0533 200.076 53.168 200.295 53.28C200.514 53.3867 200.698 53.5467 200.847 53.76C201.002 53.968 201.079 54.2453 201.079 54.592C201.079 54.88 201.002 55.1387 200.847 55.368C200.692 55.592 200.479 55.768 200.207 55.896C199.94 56.0187 199.642 56.08 199.311 56.08ZM204.523 53.32V55.544H206.987V56H204.043V50.4H206.907V50.856H204.523V52.864H206.827V53.32H204.523ZM213.356 56L211.3 53.536H210.556V56H210.076V50.4H211.628C211.975 50.4 212.282 50.4693 212.548 50.608C212.82 50.7413 213.028 50.928 213.172 51.168C213.322 51.4027 213.396 51.6693 213.396 51.968C213.396 52.384 213.258 52.736 212.98 53.024C212.708 53.3067 212.343 53.472 211.884 53.52L213.964 56H213.356ZM210.556 50.856V53.08H211.628C212.023 53.08 212.332 52.976 212.556 52.768C212.786 52.56 212.9 52.2933 212.9 51.968C212.9 51.6427 212.786 51.376 212.556 51.168C212.332 50.96 212.023 50.856 211.628 50.856H210.556ZM218.07 55.08L219.75 50.4H220.254L218.214 56H217.91L215.87 50.4H216.382L218.07 55.08ZM223.523 56H223.043V50.4H223.523V56ZM229.344 56.08C228.837 56.08 228.368 55.952 227.936 55.696C227.509 55.44 227.168 55.0907 226.912 54.648C226.661 54.2053 226.536 53.7227 226.536 53.2C226.536 52.6773 226.661 52.1947 226.912 51.752C227.168 51.3093 227.509 50.96 227.936 50.704C228.368 50.448 228.837 50.32 229.344 50.32C229.931 50.32 230.448 50.4827 230.896 50.808C231.344 51.1333 231.68 51.5707 231.904 52.12H231.392C231.189 51.6987 230.909 51.3707 230.552 51.136C230.195 50.896 229.792 50.776 229.344 50.776C228.928 50.776 228.541 50.8827 228.184 51.096C227.832 51.3093 227.552 51.6027 227.344 51.976C227.136 52.344 227.032 52.752 227.032 53.2C227.032 53.648 227.136 54.0587 227.344 54.432C227.552 54.8 227.832 55.0907 228.184 55.304C228.541 55.5173 228.928 55.624 229.344 55.624C229.797 55.624 230.205 55.504 230.568 55.264C230.936 55.024 231.219 54.696 231.416 54.28H231.928C231.704 54.8293 231.365 55.2667 230.912 55.592C230.459 55.9173 229.936 56.08 229.344 56.08ZM235.3 53.32V55.544H237.764V56H234.82V50.4H237.684V50.856H235.3V52.864H237.604V53.32H235.3Z" fill="white"/>
</svg>
