<svg width="160" height="12" viewBox="0 0 160 12" fill="none" xmlns="http://www.w3.org/2000/svg">
<path d="M6.016 7.08787C3.85067 6.99187 2.304 6.67187 1.376 6.12787C0.458671 5.58387 3.93391e-06 4.69854 3.93391e-06 3.47187C3.93391e-06 2.29854 0.533337 1.4292 1.6 0.863871C2.66667 0.28787 4.10134 -0.0001297 5.904 -0.0001297C7.99467 -0.0001297 9.728 0.314537 11.104 0.943871V3.83987C9.57867 2.89054 7.84534 2.41587 5.904 2.41587C4.752 2.41587 3.93067 2.49054 3.44 2.63987C2.96 2.7892 2.72 3.0452 2.72 3.40787C2.72 3.72787 2.96 3.96787 3.44 4.12787C3.93067 4.28787 4.832 4.3892 6.144 4.43187C8.20267 4.50654 9.68534 4.81587 10.592 5.35987C11.5093 5.8932 11.968 6.76254 11.968 7.96787C11.968 8.68254 11.808 9.30654 11.488 9.83987C11.1787 10.3625 10.7413 10.7732 10.176 11.0719C9.61067 11.3705 8.98134 11.5892 8.288 11.7279C7.60534 11.8665 6.848 11.9359 6.016 11.9359C3.648 11.9359 1.74934 11.6105 0.320004 10.9599L0.304004 7.91987C1.76534 8.9972 3.66934 9.53587 6.016 9.53587C8.17067 9.53587 9.248 9.1092 9.248 8.25587C9.248 7.85054 9.01334 7.56787 8.544 7.40787C8.07467 7.24787 7.232 7.1412 6.016 7.08787ZM24.2746 11.5679L20.4826 6.12787L18.1946 7.99987V11.5679H15.4426V0.36787H18.1946V4.94387L23.5866 0.36787H27.4906L22.5786 4.41587L27.6346 11.5679H24.2746ZM42.5461 0.36787L36.7061 7.39187V11.5679H33.9541V7.35987L28.1621 0.36787H31.7301L35.3621 5.02387L38.9621 0.36787H42.5461ZM55.2524 0.36787H58.0044V11.5679H55.2524V7.02387H47.4284V11.5679H44.6764V0.36787H47.4284V4.60787H55.2524V0.36787ZM72.4145 11.5679L71.2945 9.16787H64.6385L63.5185 11.5679H60.6385L65.9825 0.36787H69.9505L75.2945 11.5679H72.4145ZM65.6945 6.89587H70.2385L67.9665 2.03187L65.6945 6.89587ZM86.9494 11.5679L83.3814 7.75987H80.6934V11.5679H77.9414V0.36787H84.0854C84.9174 0.36787 85.648 0.43187 86.2774 0.559871C86.9067 0.677204 87.4667 0.874537 87.9574 1.15187C88.4587 1.41854 88.8374 1.7972 89.0934 2.28787C89.36 2.77854 89.4934 3.37054 89.4934 4.06387C89.4934 5.82387 88.608 6.95454 86.8374 7.45587L90.7094 11.5679H86.9494ZM80.6934 2.78387V5.34387H83.9254C84.9174 5.34387 85.6267 5.24787 86.0534 5.05587C86.48 4.8532 86.6934 4.52254 86.6934 4.06387C86.6934 3.6052 86.48 3.27987 86.0534 3.08787C85.6267 2.8852 84.9174 2.78387 83.9254 2.78387H80.6934ZM99.9366 0.36787C101.654 0.36787 102.982 0.661204 103.921 1.24787C104.87 1.83454 105.345 2.82654 105.345 4.22387C105.345 5.6212 104.87 6.6132 103.921 7.19987C102.982 7.78654 101.654 8.07987 99.9366 8.07987H96.5446V11.5679H93.7926V0.36787H99.9366ZM99.9366 5.66387C100.833 5.66387 101.478 5.55187 101.873 5.32787C102.278 5.10387 102.481 4.73587 102.481 4.22387C102.481 3.71187 102.278 3.34387 101.873 3.11987C101.478 2.89587 100.833 2.78387 99.9366 2.78387H96.5446V5.66387H99.9366ZM109.21 11.1519C108.858 11.5039 108.431 11.6799 107.93 11.6799C107.428 11.6799 106.996 11.5039 106.634 11.1519C106.282 10.7892 106.106 10.3572 106.106 9.85587C106.106 9.35454 106.282 8.92787 106.634 8.57587C106.996 8.2132 107.428 8.03187 107.93 8.03187C108.431 8.03187 108.858 8.2132 109.21 8.57587C109.572 8.92787 109.754 9.35454 109.754 9.85587C109.754 10.3572 109.572 10.7892 109.21 11.1519ZM116.778 9.15187H123.738V11.5679H114.026V0.36787H116.778V9.15187ZM126.596 0.36787H129.348V11.5679H126.596V0.36787ZM142.812 0.36787H145.692L140.668 11.5679H136.7L131.676 0.36787H134.556L138.684 9.79187L142.812 0.36787ZM159.442 2.78387H150.77V4.68787H159.09V6.89587H150.77V9.13587H159.442V11.5679H148.018V0.36787H159.442V2.78387Z" fill="#EDEDED"/>
</svg>
