<svg width="140" height="11" viewBox="0 0 140 11" fill="none" xmlns="http://www.w3.org/2000/svg">
<path d="M5.972 10L2.808 6.164H1.8V10H0.26V0.199999H3.34C4.03067 0.199999 4.63267 0.330666 5.146 0.591999C5.65933 0.843999 6.056 1.19867 6.336 1.656C6.616 2.104 6.756 2.61267 6.756 3.182C6.756 3.86333 6.56 4.456 6.168 4.96C5.78533 5.45467 5.25333 5.8 4.572 5.996L7.89 10H5.972ZM1.8 1.628V4.722H3.326C3.90467 4.722 4.35733 4.582 4.684 4.302C5.01067 4.01267 5.174 3.63933 5.174 3.182C5.174 2.72467 5.01067 2.35133 4.684 2.062C4.35733 1.77267 3.90467 1.628 3.326 1.628H1.8ZM10.6594 5.66V8.558H14.8034V10H9.11938V0.199999H14.6634V1.628H10.6594V4.218H14.5234V5.66H10.6594ZM20.1327 7.424L22.6667 0.199999H24.3047L20.7207 10H19.5167L15.9327 0.199999H17.5987L20.1327 7.424ZM27.4638 10H25.9238V0.199999H27.4638V10ZM34.839 4.75C35.3617 4.92733 35.777 5.226 36.085 5.646C36.4023 6.05667 36.561 6.54667 36.561 7.116C36.561 7.66667 36.421 8.16133 36.141 8.6C35.8703 9.03867 35.4737 9.384 34.951 9.636C34.4283 9.87867 33.8077 10 33.089 10H30.051V0.199999H32.907C33.915 0.199999 34.7037 0.437999 35.273 0.913999C35.8517 1.39 36.141 2.02 36.141 2.804C36.141 3.224 36.0197 3.61133 35.777 3.966C35.5437 4.31133 35.231 4.57267 34.839 4.75ZM31.591 1.558V4.26H32.907C33.4297 4.26 33.8357 4.134 34.125 3.882C34.4237 3.63 34.573 3.30333 34.573 2.902C34.573 2.51 34.4237 2.188 34.125 1.936C33.8263 1.684 33.4203 1.558 32.907 1.558H31.591ZM33.117 8.628C33.6863 8.628 34.139 8.48333 34.475 8.194C34.811 7.89533 34.979 7.52667 34.979 7.088C34.979 6.64933 34.811 6.28533 34.475 5.996C34.139 5.69733 33.6863 5.548 33.117 5.548H31.591V8.628H33.117ZM39.9855 5.66V8.558H44.1295V10H38.4455V0.199999H43.9895V1.628H39.9855V4.218H43.8495V5.66H39.9855ZM46.2248 10V0.199999H49.1088C50.2102 0.199999 51.1668 0.405333 51.9788 0.816C52.8002 1.21733 53.4302 1.79133 53.8688 2.538C54.3168 3.27533 54.5408 4.12933 54.5408 5.1C54.5408 6.07067 54.3168 6.92933 53.8688 7.676C53.4302 8.41333 52.8002 8.98733 51.9788 9.398C51.1668 9.79933 50.2102 10 49.1088 10H46.2248ZM49.1088 8.558C49.9022 8.558 50.5882 8.418 51.1668 8.138C51.7455 7.84867 52.1888 7.44267 52.4968 6.92C52.8048 6.39733 52.9588 5.79067 52.9588 5.1C52.9588 4.40933 52.8048 3.80267 52.4968 3.28C52.1888 2.75733 51.7455 2.35133 51.1668 2.062C50.5882 1.77267 49.9022 1.628 49.1088 1.628H47.7648V8.558H49.1088ZM62.9194 8.39L65.8594 0.199999H66.7414L63.1714 10H62.6394L59.0694 0.199999H59.9654L62.9194 8.39ZM69.3813 10H68.5413V0.199999H69.3813V10ZM79.5407 8.46V0.199999H80.3667V10H79.8207L72.9887 1.74V10H72.1627V0.199999H72.7087L79.5407 8.46ZM85.5505 4.806L88.1545 0.199999H89.0925L85.9565 5.646V10H85.1165V5.646L81.9665 0.199999H82.9325L85.5505 4.806ZM95.5601 10H90.6881V0.199999H91.5281V9.202H95.5601V10ZM103.52 10.14C102.867 10.14 102.297 10.014 101.812 9.762C101.327 9.51 100.949 9.16 100.678 8.712C100.417 8.264 100.277 7.76 100.258 7.2H101.098C101.117 7.80667 101.336 8.31533 101.756 8.726C102.176 9.13667 102.764 9.342 103.52 9.342C104.211 9.342 104.752 9.16933 105.144 8.824C105.545 8.47867 105.746 8.04933 105.746 7.536C105.746 7.10667 105.639 6.75667 105.424 6.486C105.209 6.21533 104.939 6.00533 104.612 5.856C104.295 5.70667 103.865 5.548 103.324 5.38C102.708 5.184 102.213 4.99267 101.84 4.806C101.467 4.61933 101.149 4.34867 100.888 3.994C100.636 3.63933 100.51 3.17267 100.51 2.594C100.51 2.10867 100.636 1.67467 100.888 1.292C101.149 0.909333 101.509 0.610666 101.966 0.395999C102.423 0.171999 102.932 0.0599995 103.492 0.0599995C104.024 0.0599995 104.514 0.181333 104.962 0.424C105.41 0.666666 105.765 0.997999 106.026 1.418C106.297 1.82867 106.437 2.286 106.446 2.79H105.606C105.587 2.44467 105.489 2.12733 105.312 1.838C105.135 1.53933 104.883 1.30133 104.556 1.124C104.239 0.946666 103.87 0.857999 103.45 0.857999C102.834 0.857999 102.335 1.01667 101.952 1.334C101.569 1.65133 101.378 2.07133 101.378 2.594C101.378 2.99533 101.481 3.322 101.686 3.574C101.901 3.826 102.162 4.02667 102.47 4.176C102.778 4.316 103.198 4.47 103.73 4.638C104.355 4.84333 104.859 5.044 105.242 5.24C105.625 5.42667 105.947 5.70667 106.208 6.08C106.479 6.444 106.614 6.92933 106.614 7.536C106.614 8.04 106.479 8.49267 106.208 8.894C105.937 9.286 105.564 9.594 105.088 9.818C104.621 10.0327 104.099 10.14 103.52 10.14ZM111.021 10H110.181V0.998H107.605V0.199999H113.597V0.998H111.021V10ZM119.311 10.14C118.396 10.14 117.556 9.916 116.791 9.468C116.035 9.02 115.433 8.41333 114.985 7.648C114.546 6.87333 114.327 6.024 114.327 5.1C114.327 4.176 114.546 3.33133 114.985 2.566C115.433 1.79133 116.035 1.18 116.791 0.731999C117.556 0.283999 118.396 0.0599995 119.311 0.0599995C120.225 0.0599995 121.061 0.283999 121.817 0.731999C122.582 1.18 123.184 1.79133 123.623 2.566C124.071 3.33133 124.295 4.176 124.295 5.1C124.295 6.024 124.071 6.87333 123.623 7.648C123.184 8.41333 122.582 9.02 121.817 9.468C121.061 9.916 120.225 10.14 119.311 10.14ZM119.311 9.342C120.067 9.342 120.762 9.15533 121.397 8.782C122.031 8.40867 122.531 7.9 122.895 7.256C123.259 6.60267 123.441 5.884 123.441 5.1C123.441 4.316 123.259 3.602 122.895 2.958C122.531 2.30467 122.031 1.79133 121.397 1.418C120.762 1.04467 120.067 0.857999 119.311 0.857999C118.555 0.857999 117.859 1.04467 117.225 1.418C116.599 1.79133 116.105 2.30467 115.741 2.958C115.377 3.602 115.195 4.316 115.195 5.1C115.195 5.884 115.377 6.60267 115.741 7.256C116.105 7.9 116.599 8.40867 117.225 8.782C117.859 9.15533 118.555 9.342 119.311 9.342ZM132.166 10L128.568 5.688H127.266V10H126.426V0.199999H129.142C129.749 0.199999 130.286 0.321333 130.752 0.564C131.228 0.797333 131.592 1.124 131.844 1.544C132.106 1.95467 132.236 2.42133 132.236 2.944C132.236 3.672 131.994 4.288 131.508 4.792C131.032 5.28667 130.393 5.576 129.59 5.66L133.23 10H132.166ZM127.266 0.998V4.89H129.142C129.833 4.89 130.374 4.708 130.766 4.344C131.168 3.98 131.368 3.51333 131.368 2.944C131.368 2.37467 131.168 1.908 130.766 1.544C130.374 1.18 129.833 0.998 129.142 0.998H127.266ZM135.579 5.31V9.202H139.891V10H134.739V0.199999H139.751V0.998H135.579V4.512H139.611V5.31H135.579Z" fill="#F1F1F1"/>
</svg>
