<svg width="147" height="11" viewBox="0 0 147 11" fill="none" xmlns="http://www.w3.org/2000/svg">
<path d="M5.79 10L3.116 6.668H2.598V10H0.148V0.199999H3.732C4.50667 0.199999 5.18333 0.335333 5.762 0.606C6.34067 0.876666 6.78867 1.25933 7.106 1.754C7.42333 2.24867 7.582 2.818 7.582 3.462C7.582 4.106 7.42333 4.67067 7.106 5.156C6.78867 5.64133 6.336 6.01467 5.748 6.276L8.758 10H5.79ZM2.598 2.258V4.652H3.62C4.08667 4.652 4.446 4.54 4.698 4.316C4.95933 4.092 5.09 3.80733 5.09 3.462C5.09 3.10733 4.95933 2.818 4.698 2.594C4.446 2.37 4.08667 2.258 3.62 2.258H2.598ZM12.1273 6.01V7.914H16.1453V10H9.6773V0.199999H16.0053V2.286H12.1273V3.98H15.8653V6.01H12.1273ZM21.8111 6.696L23.9951 0.199999H26.5711L22.9311 10H20.6491L17.0091 0.199999H19.6131L21.8111 6.696ZM30.3809 10H27.9309V0.199999H30.3809V10ZM38.5801 4.75C39.1027 4.946 39.5087 5.24467 39.7981 5.646C40.0967 6.038 40.2461 6.50467 40.2461 7.046C40.2461 7.92333 39.9101 8.63733 39.2381 9.188C38.5754 9.72933 37.6001 10 36.3121 10H32.7281V0.199999H36.1581C37.3154 0.199999 38.2161 0.433333 38.8601 0.899999C39.5041 1.36667 39.8261 2.01067 39.8261 2.832C39.8261 3.252 39.7094 3.63 39.4761 3.966C39.2521 4.29267 38.9534 4.554 38.5801 4.75ZM35.1781 2.104V4.162H36.0881C36.4987 4.162 36.8161 4.06867 37.0401 3.882C37.2734 3.686 37.3901 3.434 37.3901 3.126C37.3901 2.82733 37.2734 2.58467 37.0401 2.398C36.8161 2.202 36.4987 2.104 36.0881 2.104H35.1781ZM36.3681 8.096C36.7974 8.096 37.1334 7.99333 37.3761 7.788C37.6187 7.57333 37.7401 7.30733 37.7401 6.99C37.7401 6.66333 37.6187 6.39733 37.3761 6.192C37.1427 5.98667 36.8067 5.884 36.3681 5.884H35.1781V8.096H36.3681ZM44.3519 6.01V7.914H48.3699V10H41.9019V0.199999H48.2299V2.286H44.3519V3.98H48.0899V6.01H44.3519ZM50.2418 10V0.199999H53.7418C54.8431 0.199999 55.8044 0.405333 56.6258 0.816C57.4564 1.21733 58.0958 1.79133 58.5438 2.538C59.0011 3.27533 59.2298 4.12933 59.2298 5.1C59.2298 6.07067 59.0011 6.92933 58.5438 7.676C58.0958 8.41333 57.4564 8.98733 56.6258 9.398C55.8044 9.79933 54.8431 10 53.7418 10H50.2418ZM53.6858 7.858C54.6284 7.858 55.3704 7.61067 55.9118 7.116C56.4531 6.612 56.7238 5.94 56.7238 5.1C56.7238 4.26 56.4531 3.59267 55.9118 3.098C55.3704 2.594 54.6284 2.342 53.6858 2.342H52.6917V7.858H53.6858ZM68.1981 7.844L70.9281 0.199999H72.1041L68.5341 10H67.8341L64.2641 0.199999H65.4681L68.1981 7.844ZM74.979 10H73.859V0.199999H74.979V10ZM85.0208 7.928V0.199999H86.1128V10H85.4128L78.8048 2.272V10H77.7128V0.199999H78.4128L85.0208 7.928ZM91.3774 4.624L93.8274 0.199999H95.0734L91.9234 5.73V10H90.8034V5.73L87.6534 0.199999H88.9274L91.3774 4.624ZM101.507 10H96.6073V0.199999H97.7273V8.95H101.507V10ZM109.522 10.14C108.85 10.14 108.267 10.014 107.772 9.762C107.277 9.51 106.895 9.16 106.624 8.712C106.363 8.264 106.223 7.76 106.204 7.2H107.324C107.343 7.75067 107.543 8.20333 107.926 8.558C108.309 8.91267 108.841 9.09 109.522 9.09C110.129 9.09 110.609 8.94533 110.964 8.656C111.328 8.36667 111.51 7.97467 111.51 7.48C111.51 7.09733 111.407 6.78467 111.202 6.542C111.006 6.29 110.759 6.094 110.46 5.954C110.161 5.814 109.76 5.66467 109.256 5.506C108.64 5.29133 108.15 5.09533 107.786 4.918C107.422 4.73133 107.109 4.456 106.848 4.092C106.587 3.728 106.456 3.24733 106.456 2.65C106.456 2.16467 106.587 1.726 106.848 1.334C107.109 0.942 107.469 0.634 107.926 0.409999C108.393 0.176666 108.915 0.0599995 109.494 0.0599995C110.045 0.0599995 110.544 0.181333 110.992 0.424C111.449 0.657333 111.813 0.984 112.084 1.404C112.355 1.824 112.495 2.286 112.504 2.79H111.384C111.365 2.29533 111.174 1.894 110.81 1.586C110.446 1.26867 109.993 1.11 109.452 1.11C108.92 1.11 108.481 1.24067 108.136 1.502C107.791 1.76333 107.618 2.146 107.618 2.65C107.618 3.00467 107.711 3.29867 107.898 3.532C108.094 3.76533 108.332 3.94733 108.612 4.078C108.901 4.20867 109.298 4.36267 109.802 4.54C110.409 4.736 110.903 4.932 111.286 5.128C111.678 5.324 112.005 5.61333 112.266 5.996C112.537 6.36933 112.672 6.864 112.672 7.48C112.672 7.984 112.532 8.44133 112.252 8.852C111.981 9.25333 111.608 9.57067 111.132 9.804C110.656 10.028 110.119 10.14 109.522 10.14ZM117.219 10H116.099V1.25H113.579V0.199999H119.739V1.25H117.219V10ZM125.492 10.14C124.568 10.14 123.719 9.916 122.944 9.468C122.169 9.02 121.558 8.40867 121.11 7.634C120.662 6.85933 120.438 6.01467 120.438 5.1C120.438 4.18533 120.662 3.34067 121.11 2.566C121.558 1.79133 122.169 1.18 122.944 0.731999C123.719 0.283999 124.568 0.0599995 125.492 0.0599995C126.416 0.0599995 127.265 0.283999 128.04 0.731999C128.815 1.18 129.426 1.79133 129.874 2.566C130.322 3.34067 130.546 4.18533 130.546 5.1C130.546 6.01467 130.322 6.85933 129.874 7.634C129.426 8.40867 128.815 9.02 128.04 9.468C127.265 9.916 126.416 10.14 125.492 10.14ZM125.492 9.09C126.201 9.09 126.85 8.91267 127.438 8.558C128.035 8.20333 128.507 7.72267 128.852 7.116C129.207 6.50933 129.384 5.83733 129.384 5.1C129.384 4.36267 129.207 3.69067 128.852 3.084C128.507 2.47733 128.035 1.99667 127.438 1.642C126.85 1.28733 126.201 1.11 125.492 1.11C124.783 1.11 124.129 1.28733 123.532 1.642C122.944 1.99667 122.473 2.47733 122.118 3.084C121.773 3.69067 121.6 4.36267 121.6 5.1C121.6 5.83733 121.773 6.50933 122.118 7.116C122.473 7.72267 122.944 8.20333 123.532 8.558C124.129 8.91267 124.783 9.09 125.492 9.09ZM138.386 10L134.914 5.8H133.766V10H132.646V0.199999H135.516C136.142 0.199999 136.692 0.321333 137.168 0.564C137.654 0.806667 138.027 1.14267 138.288 1.572C138.559 1.992 138.694 2.468 138.694 3C138.694 3.7 138.47 4.302 138.022 4.806C137.584 5.30067 136.991 5.61333 136.244 5.744L139.786 10H138.386ZM133.766 1.25V4.75H135.516C136.132 4.75 136.622 4.59133 136.986 4.274C137.35 3.95667 137.532 3.532 137.532 3C137.532 2.468 137.35 2.04333 136.986 1.726C136.622 1.40867 136.132 1.25 135.516 1.25H133.766ZM142.311 5.45V8.95H146.511V10H141.191V0.199999H146.371V1.25H142.311V4.4H146.231V5.45H142.311Z" fill="#F1F1F1"/>
</svg>
